<svg width="476" height="112" viewBox="0 0 476 112" fill="none" xmlns="http://www.w3.org/2000/svg">
<g clip-path="url(#clip0_2_45)">
<path d="M476 36.3727L473.709 31.1766L457.765 31.3344L441.296 40.7168C443.818 43.8513 444.848 46.6702 446.162 53.2547L476 36.3727Z" fill="black"/>
<path d="M364.541 84.2735L366.927 89.9429L381.651 89.7957L408.62 74.5334C407.559 69.9159 406.497 65.2667 405.509 61.0068L364.541 84.284V84.2735Z" fill="black"/>
<path d="M411.71 31.734H410.606C403.733 31.8287 387.463 32.0285 387.463 32.0285L390.028 37.8663L397.805 37.7926C401.61 37.7506 403.355 39.3073 404.29 42.3787C405.152 45.1766 415.42 89.459 415.42 89.459L450.976 89.1014L441.979 49.9835C438.08 35.2577 424.059 31.6183 411.7 31.734" fill="black"/>
<path d="M106.53 51.3614C107.097 50.0676 109.389 44.9031 109.389 44.9031L103.734 32.281L98.0168 45.0293L92.4464 32.7649L87.0022 44.9136L81.4109 57.1255L96.1039 56.9782C101.338 56.9256 104.733 55.4846 106.53 51.3824" fill="black"/>
<path d="M87.9796 32.6281C92.1416 23.6243 95.9883 15.3464 102.82 13.432L107.518 24.1187L113.845 10.024L119.531 22.9722L127.087 5.87979L124.502 0L90.502 0.336589C67.979 0.557476 61.3366 13.9053 52.1614 29.5252C45.0671 41.6003 32.6547 42.3997 24.625 43.2832L17.3836 58.314L39.3601 58.0932C35.9023 65.8032 28.7345 81.9489 25.7496 88.4388C19.391 102.249 15.9858 105.941 9.25935 106.015L0 106.11L2.58547 112L31.4986 111.716C43.8689 111.59 54.2108 107.635 61.4102 92.867L88.0742 32.5019L87.9901 32.6386L87.9796 32.6281Z" fill="black"/>
<path d="M140.299 86.0827L142.884 91.9625L175.896 91.6364L173.311 85.7566L140.299 86.0827Z" fill="black"/>
<path d="M165.428 40.1067L174.32 40.0225L171.755 34.1848C171.755 34.1848 155.675 34.311 148.801 34.3636H147.698C135.327 34.5004 124.986 38.4658 117.786 53.2231L115.527 58.2509L102.568 87.1765L104.932 92.562L134.529 92.2675C134.529 92.2675 145.354 67.9699 150.042 57.6198C156.295 43.8092 158.302 40.1908 165.428 40.1277" fill="black"/>
<path d="M209.591 45.5868L212.366 39.1916L210.001 33.8062L180.405 34.1007L175.076 46.1653V46.2284C168.739 59.997 166.815 63.6574 159.69 63.731L151.471 63.8152L154.035 69.6529C154.035 69.6529 169.443 69.5372 176.316 69.4846H177.41C189.78 69.3478 200.122 65.3824 207.332 50.6251L209.591 45.5973V45.5868Z" fill="black"/>
<path d="M331.403 38.4553L340.305 38.3712L337.74 32.5334C337.74 32.5334 321.66 32.6597 314.786 32.7123H313.683C301.313 32.849 290.971 36.8144 283.771 51.5718L281.512 56.5996L268.553 85.5252L270.917 90.9106L300.514 90.6161C300.514 90.6161 311.339 66.3186 316.027 55.9685C322.28 42.1578 324.287 38.5395 331.413 38.4763" fill="black"/>
<path d="M378.341 37.5402L375.976 32.1548L346.38 32.4493C346.38 32.4493 335.554 56.7468 330.867 67.0969C324.613 80.9076 322.606 84.5259 315.48 84.5996L306.589 84.6837L309.153 90.5214C309.153 90.5214 325.233 90.3952 332.107 90.3426H333.2C345.57 90.2059 355.912 86.2404 363.122 71.4831L365.382 66.4553L378.341 37.5297V37.5402Z" fill="black"/>
<path d="M283.498 33.0593C283.498 33.0593 254.921 33.3118 248.048 33.3644H246.955C234.584 33.5011 224.242 37.4665 217.033 52.2239L214.773 57.2517L201.814 86.1773L204.179 91.5627L233.775 91.2682C233.775 91.2682 244.6 66.9707 249.288 56.6206C255.541 42.8099 257.549 39.1916 264.675 39.1284L280.85 38.9707L283.498 33.0804V33.0593Z" fill="black"/>
</g>
<defs>
<clipPath id="clip0_2_45">
<rect width="476" height="112" fill="white"/>
</clipPath>
</defs>
</svg>
